<svg xmlns="http://www.w3.org/2000/svg" xmlns:xlink="http://www.w3.org/1999/xlink" version="1.1" id="Layer_1" x="0px" y="0px" width="512px" height="512px" viewBox="0 0 512 512" enable-background="new 0 0 512 512" xml:space="preserve"> <g id="fish_steak_1_"> <polygon fill="#FC6E51" points="429.996,274.406 323.999,247.75 308.672,222.407 328.671,198.408 476.667,159.081 420.669,126.738 340.671,97.755 240.674,89.083 182.004,94.411 92.678,118.411 30.681,164.409 14.681,195.752 12.009,221.735 20.009,272.406 85.343,325.748 164.676,349.747 266.001,354.402 354.671,340.403 429.996,315.748 483.339,281.749 "></polygon> <path fill="#E6E9ED" d="M263.306,221.735c0,10.703-21.671,19.375-48.405,19.375c-26.726,0-48.396-8.672-48.396-19.375 s21.671-19.375,48.396-19.375C241.635,202.361,263.306,211.033,263.306,221.735z"></path> <polygon fill="#656D78" points="487.995,281.577 457.495,298.576 367.999,334.576 298.501,354.402 212.503,354.402 121.506,339.075 68.507,319.576 41.508,299.076 12.009,252.078 9.509,324.576 36.508,363.074 93.006,398.074 160.504,419.572 214.909,423.572 273.001,419.072 357.499,407.073 500.994,343.575 503.494,293.576 "></polygon> <polygon fill="#E9573F" points="494.666,161.425 325.343,194.752 310.344,215.751 320,238.094 360.343,254.094 499.088,220.751 503.494,202.361 "></polygon> <path d="M490.667,148.707v0.156c-70.654-50.108-163.434-73.748-249.274-73.748C114.17,75.115,2.205,127.02,0.041,221.548H0.01 v68.904h0.046c-0.016,0.656-0.039,1.312-0.046,1.983C-0.6,386.34,108.623,436.885,234.166,436.885 c97.317,0,204.408-30.343,277.827-94.372v-68.888c0,0-59.514-6.922-113.027-17.859c53.514-12.625,113.027-21.5,113.027-21.5 v-69.044C511.993,165.222,503.885,158.112,490.667,148.707z M37.555,172.018c10.484-15.25,25.913-28.718,45.874-40.061 c40.319-22.89,96.411-35.499,157.964-35.499c46.437,0,93.856,7.281,137.152,21.078c22.655,7.203,44.14,16.171,63.889,26.671 c5.249,2.781,10.39,5.688,15.405,8.688c-15.312,2.828-32.717,6.25-50.154,10.093c-29.749,6.593-53.467,13.125-70.498,19.421 c-11.375,4.203-19.999,8.375-26.374,12.75c-8.468,5.796-12.796,12.078-14.874,17.734h-21.25 c-7.875-15.437-32.358-26.671-61.35-26.671c-28.992,0-53.475,11.234-61.342,26.671H22.024 C23.79,198.205,28.985,184.486,37.555,172.018z M256.001,223.548c0,1-2.055,4.406-8.164,7.968 c-8.742,5.109-21.319,8.031-34.499,8.031c-13.18,0-25.757-2.922-34.507-8.031c-6.102-3.562-8.164-6.968-8.164-7.968 s2.062-4.406,8.164-7.969c8.75-5.093,21.327-8.031,34.507-8.031c13.179,0,25.757,2.938,34.499,8.031 C253.947,219.142,256.001,222.548,256.001,223.548z M21.36,291.686c0.008-0.249,0.016-0.499,0.023-0.765l0.031-1.312 c3.211,4.358,6.75,8.546,10.593,12.562v33.344c-7.187-13.125-10.765-27.5-10.664-42.938 C21.345,292.264,21.353,291.982,21.36,291.686z M202.667,366.918v47.467c-7.21-0.53-14.328-1.249-21.327-2.155v-47.343 C188.355,365.73,195.472,366.402,202.667,366.918z M160.004,408.886c-7.296-1.375-14.421-2.953-21.328-4.734v-46.89 c6.953,1.688,14.07,3.156,21.328,4.453V408.886z M117.342,397.762c-7.469-2.562-14.593-5.406-21.335-8.484v-45.624 c6.852,2.797,13.976,5.375,21.335,7.703V397.762z M74.679,377.949c-7.953-4.906-15.093-10.234-21.335-15.891v-41.545 c6.617,4.734,13.75,9.125,21.335,13.156V377.949z M224.002,415.416v-47.529c3.375,0.062,6.765,0.094,10.164,0.094 c3.711,0,7.438-0.031,11.172-0.125V415.4c-3.727,0.094-7.453,0.141-11.172,0.141C230.768,415.541,227.377,415.479,224.002,415.416z M394.669,340.513c7.203-2.562,14.312-5.343,21.328-8.28v45.639c-6.953,3.109-14.062,6.047-21.328,8.797V340.513z M373.342,394.074 c-7.03,2.25-14.14,4.312-21.343,6.202v-46.858c7.156-1.78,14.281-3.749,21.343-5.874V394.074z M330.671,405.354 c-7.062,1.5-14.171,2.828-21.327,4v-47.28c7.125-1.094,14.233-2.375,21.327-3.812V405.354z M288.001,412.354 c-7.094,0.844-14.203,1.516-21.336,2.03v-47.498c7.102-0.5,14.211-1.125,21.336-1.938V412.354z M437.34,367.543v-44.982 c7.25-3.547,14.358-7.297,21.327-11.297v44.061c-5.672,3.531-11.516,6.938-17.53,10.188 C439.887,366.184,438.605,366.855,437.34,367.543z M490.667,294.951v13.938v23.688c-3.469,2.828-7.016,5.593-10.672,8.28v-42.78 c3.609-2.438,7.172-4.906,10.672-7.468V294.951z M456.823,287.593c-5.094,3.109-10.328,6.124-15.687,9.015 c-8.016,4.344-16.327,8.438-24.89,12.281h-0.25v0.094c-12.969,5.812-26.516,11-40.53,15.531 c-44.702,14.499-93.56,22.155-141.301,22.155c-39.381,0-77.177-5.312-109.309-15.312c-32.046-10-58.326-24.672-75.99-42.452 c-15.765-15.858-24.812-34.233-26.999-54.686h130.129c7.867,15.421,32.35,26.671,61.342,26.671c28.991,0,53.475-11.25,61.35-26.671 h22.156c3.125,6.75,9,12.671,17.593,17.687c6.75,3.938,15.577,7.641,26.952,11.328c17.312,5.625,40.874,11.25,69.982,16.687 C427.169,282.858,442.809,285.452,456.823,287.593z M490.667,175.331v10.89v29.827c-30.188,4.969-91.342,15.89-135.262,29.187 c-22.562-6.625-38.687-14.062-39.812-21.968c-3.188-22.312,123.559-45.842,175.073-54.467V175.331z"></path> </g> </svg>