<svg xmlns="http://www.w3.org/2000/svg" xmlns:xlink="http://www.w3.org/1999/xlink" version="1.1" id="Layer_1" x="0px" y="0px" width="512px" height="512px" viewBox="0 0 512 512" enable-background="new 0 0 512 512" xml:space="preserve"> <g id="grilled_chicken_1_"> <polygon fill="#7F4545" points="381.498,243.5 360.998,229.501 303.999,210.001 261,207.001 202.001,228.501 134.502,257.5 89.002,262 86.502,293 93.502,326.999 111.502,365.498 140.729,404.17 170.673,422.998 204.001,428.998 288,428.998 350.498,413.998 391.498,373.998 420.498,320.999 420.498,281.5 "></polygon> <polygon fill="#A85D5D" points="229.336,311.343 194.001,295.344 166.666,302.016 144.002,317.999 126.666,370.014 126.666,388.67 129.338,410.014 150.001,416.014 204.665,403.342 235.336,364.014 235.336,340.248 "></polygon> <polygon fill="#F5F7FA" points="116.666,395.67 76.339,425.998 66.667,441.669 73.339,454.325 86.502,468.996 107.002,465.668 114.338,445.669 138.338,424.326 "></polygon> <g> <path d="M325.687,158.768c2.328,8.094,6.844,13.828,7.344,14.469v-0.016c1.969,2.438,4.952,3.983,8.312,3.983 c5.875,0,10.656-4.765,10.656-10.671c0-2.531-0.875-4.844-2.359-6.688l0,0c-0.016-0.031-2.328-3.094-3.438-6.969 c-1.297-4.531-0.5-7.844,2.688-11.062c8.672-8.688,11.531-19.984,8.078-31.812c-2.344-7.938-6.812-13.531-7.406-14.25l0,0 c0,0,0-0.016-0.016-0.031v0.016c-1.953-2.359-4.906-3.859-8.203-3.859c-5.905,0-10.671,4.781-10.671,10.656 c0,2.594,0.922,4.969,2.453,6.812l0,0c0.031,0.031,2.281,2.937,3.358,6.655c1.281,4.359,0.469,7.578-2.702,10.766 C325.124,135.439,322.265,146.814,325.687,158.768z"></path> <path d="M237.516,130.533c3.179,11.938,9.312,20.219,10,21.125h0.008c1.945,2.562,5.016,4.219,8.477,4.219 c5.891,0,10.672-4.781,10.672-10.672c0-2.406-0.812-4.609-2.156-6.406l0.008-0.016c-0.039-0.062-4.492-6.094-6.539-14.312 c-2.453-9.828-0.484-18.187,6.008-25.53c11.398-12.891,15.023-28.703,10.508-45.719c-3.188-11.952-9.32-20.233-10.008-21.14 l-0.008,0.016c-1.953-2.562-5.016-4.219-8.484-4.219c-5.891,0-10.664,4.781-10.664,10.656c0,2.406,0.805,4.625,2.156,6.406 l-0.016,0.016c0.047,0.047,4.492,6.108,6.547,14.312c2.453,9.828,0.484,18.188-6.008,25.547 C236.618,97.69,232.985,113.502,237.516,130.533z"></path> <path d="M155.033,158.768c2.32,8.094,6.828,13.828,7.336,14.469v-0.016c1.961,2.438,4.945,3.983,8.305,3.983 c5.89,0,10.664-4.765,10.664-10.671c0-2.531-0.891-4.844-2.367-6.688h0.008c-0.023-0.031-2.328-3.094-3.445-6.969 c-1.297-4.531-0.5-7.844,2.695-11.062c8.664-8.688,11.523-19.984,8.07-31.812c-2.328-7.938-6.812-13.531-7.391-14.25 c-0.008,0-0.008,0-0.008,0s-0.016-0.016-0.016-0.031v0.016c-1.961-2.359-4.906-3.859-8.21-3.859 c-5.891,0-10.672,4.781-10.672,10.656c0,2.594,0.922,4.969,2.461,6.812h-0.008c0.023,0.031,2.281,2.937,3.367,6.655 c1.273,4.359,0.469,7.578-2.711,10.766C154.47,135.439,151.603,146.814,155.033,158.768z"></path> <path d="M501.34,305.265h-32v-21.296c0-0.031,0-0.031,0-0.031c0-5.906-4.781-10.672-10.671-10.672h-31.921 c-13.656-24.641-53.156-76.89-137.076-76.89c-102.491,0-88.585,53.937-195.63,53.937c-4.898,0-10.047-0.094-15.476-0.344 c0,0-3.406,7.281-4.398,11.406c-0.852,3.531-1.477,7.531-1.867,11.891H53.339c-5.89,0-10.664,4.766-10.664,10.672l0,0v21.327h-32 c-5.891,0-10.672,4.766-10.672,10.672c0,5.875,4.781,10.656,10.672,10.656h32v21.327v0.016c0,5.875,4.773,10.656,10.664,10.656 h37.64c4.922,9.438,10.906,18.703,18.086,27.469l-24.898,24.906c-0.031,0-0.062,0-0.094,0c-8.078,0-15.679,3.156-21.398,8.859 c-11.797,11.797-11.805,31.015,0,42.796c2.172,2.187,4.617,3.983,7.258,5.374c1.398,2.656,3.203,5.094,5.375,7.266 c5.718,5.719,13.312,8.859,21.398,8.859s15.687-3.141,21.398-8.859c5.719-5.703,8.867-13.312,8.867-21.39c0-0.031,0-0.062,0-0.094 l25.859-25.874c0.453,0,0.898,0.031,1.352,0.031c2.539,0,5.133-0.141,7.758-0.391c24.023,11.593,53.765,18.796,90.295,18.937 c99.389-0.406,149.482-43.53,170.295-87.89h36.14c5.89,0,10.671-4.781,10.671-10.656c0-0.016,0-0.031,0-0.031v-21.312h32 c5.875,0,10.656-4.781,10.656-10.656C511.996,310.03,507.215,305.265,501.34,305.265z M434.122,294.594h13.875v10.671h-13.234 C434.747,301.531,434.528,297.969,434.122,294.594z M64.011,294.594h8.336c0.281,3.469,0.688,7.031,1.242,10.671h-9.578V294.594z M64.011,337.264v-10.671h14.234c1.008,3.531,2.148,7.094,3.429,10.671H64.011z M103.026,447.544 c3.484,3.484,3.484,9.141,0,12.641c-1.75,1.734-4.031,2.609-6.32,2.609c-2.281,0-4.57-0.875-6.312-2.609 c-3.492-3.5-3.492-9.156,0-12.641c-1.75,1.734-4.031,2.609-6.32,2.609c-2.281,0-4.57-0.875-6.312-2.609 c-3.492-3.484-3.492-9.141,0-12.641c1.742-1.734,4.031-2.594,6.312-2.594c2.289,0,4.578,0.859,6.32,2.594l25.609-25.593 c1.516,2.609,3.32,5.016,5.469,7.156c2.141,2.156,4.555,3.953,7.172,5.469L103.026,447.544z M154.181,406.592 c-5.664,0-13.32-0.906-17.632-5.203c-5.531-5.547-6.75-18.453-3.188-33.734c3.953-16.922,13.351-34.702,23.937-45.28 c9.734-9.75,22.679-15.344,35.515-15.344c10.594,0,20.273,3.844,27.257,10.844c16.062,16.062,14.047,44.218-4.5,62.78 c-6.992,6.969-17.07,13.5-28.382,18.328C175.705,403.889,163.978,406.592,154.181,406.592z M410.998,326.858 c-3.562,15.952-10.875,31.296-21.156,44.374c-12.359,15.766-28.906,28.312-49.125,37.297 c-24.468,10.875-54.248,16.469-88.482,16.625c-20.031-0.094-38.515-2.5-55.265-7.172c13.015-5.734,24.976-13.547,33.687-22.266 c26.906-26.906,28.921-68.515,4.5-92.936c-11.438-11.438-26.648-17.078-42.343-17.078c-17.835,0-36.296,7.266-50.601,21.577 c-12.102,12.094-22.445,30.468-27.953,49.218c-9.976-16.531-15.101-32.718-17.718-44.437c-3.258-14.624-4.172-29.249-2.617-40.405 c0.039,0,0.078,0,0.117,0c59.96,0,87.163-16.156,111.155-30.406c21.273-12.624,39.64-23.53,84.476-23.53 c37.765,0,69.42,11.75,94.139,34.905c18.812,17.656,26.938,35.906,28.234,39.031C414.201,301.5,413.826,314.249,410.998,326.858z M447.997,337.264h-17.593c0.969-3.608,1.78-7.171,2.421-10.671h15.172V337.264z"></path> </g> </g> </svg>