<svg xmlns="http://www.w3.org/2000/svg" xmlns:xlink="http://www.w3.org/1999/xlink" version="1.1" id="Layer_1" x="0px" y="0px" width="512px" height="512px" viewBox="0 0 512 512" enable-background="new 0 0 512 512" xml:space="preserve"> <g id="hamburger_1_"> <polygon fill="#A0D468" points="495.434,213.329 73.503,213.329 16.222,256.344 443.997,256 "></polygon> <rect x="15.332" y="269.344" fill="#A85D5D" width="479.336" height="35.327"></rect> <rect x="12.004" y="355.686" fill="#A85D5D" width="479.336" height="35.328"></rect> <rect x="28.613" y="301.297" fill="#FFD2A6" width="439.993" height="57.342"></rect> <polygon fill="#FFCE54" points="100.659,311.343 256.125,412.014 409.998,311.343 "></polygon> <polygon fill="#FFD2A6" points="431.997,106.737 318.671,58.675 240,51.347 170.814,59.347 100.659,96.065 46.675,149.377 35.332,198.673 481.324,204.673 481.324,188.673 "></polygon> <rect x="35.332" y="400.67" fill="#FFD2A6" width="439.993" height="57.343"></rect> <g> <path d="M511.996,373.279c0-13.938-8.906-25.766-21.328-30.156v-25.062c12.297-4.469,21.078-16.249,21.078-30.077 c0-17.672-14.312-31.984-31.984-31.984h-34.468c0.5-0.125,0.984-0.281,1.453-0.469l0,0l0.031-0.016 c0.031-0.016,0.062-0.016,0.094-0.047l53.187-21.937l0,0c3.875-1.594,6.594-5.406,6.594-9.844c0-5.891-4.766-10.656-10.656-10.656 c-1.438,0-2.812,0.281-4.062,0.797l0,0l-0.031,0.016c-0.031,0-0.062,0.031-0.094,0.031l-49.124,20.266l-49.124-20.266 c-0.031-0.016-0.047-0.031-0.078-0.031l-0.031-0.016l0,0c-0.484-0.203-0.969-0.359-1.469-0.484h98.451 c0-94.202-105.014-170.575-234.559-170.575S21.316,119.143,21.316,213.345H66.94c-0.5,0.125-1,0.281-1.469,0.484l0,0l-0.031,0.016 c-0.031,0-0.062,0.031-0.094,0.031L12.16,235.813l0,0c-3.875,1.594-6.594,5.405-6.594,9.858c0,5.891,4.781,10.672,10.656,10.672 c1.438,0,2.812-0.297,4.062-0.812H20.3l0.016-0.016c0.031-0.016,0.062-0.016,0.094-0.047l49.125-20.249l49.124,20.249 c0.031,0.031,0.062,0.031,0.094,0.047l0.031,0.016l0,0c0.469,0.188,0.953,0.344,1.453,0.469H31.988 c-17.671,0-31.984,14.312-31.984,31.984c0,14.016,9.016,25.921,21.546,30.233v24.905c-12.421,4.391-21.312,16.219-21.312,30.156 c0,13.922,8.891,25.766,21.312,30.156v55.124c0,5.905,4.781,10.671,10.672,10.671h447.774c5.891,0,10.672-4.766,10.672-10.671 v-55.124C503.09,399.045,511.996,387.201,511.996,373.279z M256.094,401.717l-136.232-81.749h272.168L256.094,401.717z M42.878,319.968h35.546l35.53,21.327H42.878V319.968z M433.403,319.968h35.937v21.327h-71.389L433.403,319.968z M180.329,213.876 c-0.016-0.016-0.047-0.031-0.078-0.031l-0.031-0.016l0,0c-0.469-0.203-0.969-0.359-1.469-0.484h101.421 c-0.516,0.125-1,0.281-1.469,0.484l0,0l-0.031,0.016c-0.031,0-0.062,0.031-0.094,0.031l-49.125,20.266L180.329,213.876z M233.516,255.531l0.031-0.016c0.031-0.016,0.062-0.016,0.094-0.047l49.125-20.249l49.124,20.249 c0.031,0.031,0.062,0.031,0.094,0.047l0.031,0.016l0,0c0.469,0.188,0.953,0.344,1.453,0.469H232.063 C232.563,255.875,233.047,255.719,233.516,255.531L233.516,255.531z M340.139,255.531L340.139,255.531l0.031-0.016 c0.031-0.016,0.062-0.016,0.094-0.047l49.109-20.249l49.124,20.249c0.031,0.031,0.062,0.031,0.094,0.047l0.031,0.016l0,0 c0.469,0.188,0.953,0.344,1.469,0.469H338.67C339.186,255.875,339.67,255.719,340.139,255.531z M385.311,213.829L385.311,213.829 l-0.031,0.016c-0.031,0-0.062,0.031-0.094,0.031l-49.109,20.266l-49.123-20.266c-0.031-0.016-0.062-0.031-0.094-0.031 l-0.031-0.016l0,0c-0.469-0.203-0.953-0.359-1.469-0.484h101.42C386.279,213.47,385.779,213.626,385.311,213.829z M58.19,157.674 c10.312-17.734,25.234-33.781,44.375-47.702c19.625-14.281,42.608-25.516,68.28-33.406c26.875-8.281,55.499-12.469,85.03-12.469 c29.531,0,58.14,4.188,85.029,12.469c25.672,7.891,48.656,19.125,68.281,33.406c19.125,13.921,34.062,29.968,44.374,47.702 c6.453,11.109,10.921,22.608,13.358,34.358H44.832C47.269,180.282,51.722,168.783,58.19,157.674z M173.548,213.345 c-0.5,0.125-0.984,0.281-1.469,0.484l0,0l-0.031,0.016c-0.031,0-0.047,0.031-0.078,0.031l-49.125,20.266l-49.124-20.266 c-0.031-0.016-0.062-0.031-0.094-0.031l-0.031-0.016l0,0c-0.469-0.203-0.953-0.359-1.469-0.484H173.548z M126.908,255.531 L126.908,255.531l0.031-0.016c0.031-0.016,0.062-0.016,0.094-0.047l49.124-20.249l49.109,20.249 c0.031,0.031,0.062,0.031,0.094,0.047l0.031,0.016l0,0c0.469,0.188,0.953,0.344,1.469,0.469h-101.42 C125.955,255.875,126.439,255.719,126.908,255.531z M31.988,277.312h447.774c5.891,0,10.672,4.797,10.672,10.672 c0,5.891-4.781,10.672-10.672,10.672h-10.891H256.109H42.878H32.222h-0.234c-5.891,0-10.672-4.781-10.672-10.672 C21.316,282.109,26.097,277.312,31.988,277.312z M32.222,362.623h117.279l35.531,21.312H32.222 c-5.875,0-10.672-4.781-10.672-10.656S26.347,362.623,32.222,362.623z M469.34,447.903H42.878v-42.64h177.7l35.531,21.328 l35.469-21.328H469.34V447.903z M479.996,383.936H327.03l35.452-21.312h117.514c5.891,0,10.672,4.781,10.672,10.656 S485.887,383.936,479.996,383.936z"></path> <path d="M202.563,330.624c-5.891,0-10.656,4.781-10.656,10.671c0,5.891,4.766,10.656,10.656,10.656 c5.89,0,10.656-4.766,10.656-10.656C213.219,335.405,208.454,330.624,202.563,330.624z"></path> <path d="M298.75,341.295c-5.875,0-10.656,4.766-10.656,10.656s4.781,10.672,10.656,10.672c5.89,0,10.671-4.781,10.671-10.672 S304.64,341.295,298.75,341.295z"></path> <path d="M170.814,96.065c-5.875,0-10.656,4.781-10.656,10.672c0,5.89,4.781,10.671,10.656,10.671 c5.89,0,10.671-4.781,10.671-10.671C181.485,100.847,176.704,96.065,170.814,96.065z"></path> <path d="M256.109,96.065c-5.891,0-10.656,4.781-10.656,10.672c0,5.89,4.766,10.671,10.656,10.671s10.672-4.781,10.672-10.671 C266.781,100.847,262,96.065,256.109,96.065z"></path> <path d="M341.404,96.065c-5.89,0-10.655,4.781-10.655,10.672c0,5.89,4.766,10.671,10.655,10.671 c5.891,0,10.656-4.781,10.656-10.671C352.061,100.847,347.295,96.065,341.404,96.065z"></path> <path d="M127.939,149.377c-5.891,0-10.672,4.781-10.672,10.672s4.781,10.656,10.672,10.656c5.875,0,10.656-4.766,10.656-10.656 S133.814,149.377,127.939,149.377z"></path> <path d="M213.219,149.377c-5.875,0-10.656,4.781-10.656,10.672s4.781,10.656,10.656,10.656c5.891,0,10.672-4.766,10.672-10.656 S219.11,149.377,213.219,149.377z"></path> <path d="M298.516,149.377c-5.891,0-10.656,4.781-10.656,10.672s4.766,10.656,10.656,10.656c5.89,0,10.671-4.766,10.671-10.656 S304.405,149.377,298.516,149.377z"></path> <path d="M384.045,149.377c-5.891,0-10.656,4.781-10.656,10.672s4.766,10.656,10.656,10.656s10.672-4.766,10.672-10.656 S389.936,149.377,384.045,149.377z"></path> </g> </g> </svg>