<svg xmlns="http://www.w3.org/2000/svg" xmlns:xlink="http://www.w3.org/1999/xlink" version="1.1" id="Layer_1" x="0px" y="0px" width="512px" height="512px" viewBox="0 0 512 512" enable-background="new 0 0 512 512" xml:space="preserve"> <g id="fried_eggs_1_"> <path fill="#F5F7FA" d="M498.365,259.172c0,136.416-110.59,246.99-246.99,246.99c-136.401,0-246.99-110.574-246.99-246.99 c0-136.417,110.589-246.991,246.99-246.991C387.775,12.181,498.365,122.755,498.365,259.172z"></path> <path fill="#E6E9ED" d="M436.367,258.141c0,99.246-80.449,179.695-179.68,179.695c-99.246,0-179.696-80.449-179.696-179.695 c0-99.231,80.45-179.681,179.696-179.681C355.918,78.46,436.367,158.91,436.367,258.141z"></path> <path fill="#FC6E51" d="M171.503,296.998l-6.5-68.497l-13-79.497c0,0-55.998,5-59.998,4l24.499,233.49l65.498-9.499 L171.503,296.998z"></path> <path fill="#FC6E51" d="M337.996,91.006c-2-7-23.998-5-23.998-5l-47.67,18.328l-41.327,1.344l-42.998,14.999l-70.998,10 l53.67,53.654l52.326-10.328c0,0,51.67-8.671,54.327-8.671c2.655,0,77.996-16.328,77.996-16.328S339.996,98.006,337.996,91.006z"></path> <polygon fill="#F5F7FA" points="399.666,231.329 351.668,206.002 258.344,180.331 220.345,209.001 187.346,285.654 197.346,312.982 249.016,398.979 263.344,386.494 319.67,382.651 383.339,367.98 402.338,343.324 "></polygon> <path fill="#FFCE54" d="M346.496,277.749c0,28.577-23.171,51.748-51.748,51.748c-28.576,0-51.748-23.171-51.748-51.748 s23.171-51.748,51.748-51.748C323.325,226.001,346.496,249.172,346.496,277.749z"></path> <g> <path d="M256,0.01C114.615,0.01,0.01,114.63,0.01,256c0,141.369,114.605,255.99,255.99,255.99 c141.385,0,255.99-114.621,255.99-255.99C511.99,114.63,397.385,0.01,256,0.01z M464.383,363.996 c-5.078-2.812-11.484-1.047-14.406,4c-2.906,5.046-1.219,11.468,3.75,14.468c-3.531,5.499-7.312,10.858-11.297,16.062 c-4.516-3.625-11.108-3-14.843,1.453s-3.203,11.047,1.125,14.859c-2.203,2.406-4.469,4.781-6.78,7.094 c-2.328,2.312-4.688,4.562-7.094,6.78c-3.812-4.344-10.406-4.859-14.859-1.125s-5.078,10.343-1.453,14.843 c-5.203,4-10.562,7.766-16.062,11.297c-2.984-4.984-9.422-6.656-14.468-3.734c-5.047,2.906-6.797,9.312-4,14.391 c-5.438,2.828-10.984,5.453-16.672,7.844c-0.359,0.156-0.75,0.297-1.125,0.453c-2.078-5.406-8.109-8.188-13.593-6.188 c-5.484,1.984-8.328,7.999-6.422,13.499c-6.265,1.953-12.577,3.656-18.968,5.062c-1.109-5.688-6.578-9.469-12.328-8.469 c-5.719,1.016-9.562,6.422-8.672,12.155c-6.468,0.812-12.999,1.375-19.561,1.672c-0.141-5.765-4.844-10.421-10.656-10.421 s-10.515,4.656-10.656,10.421c-6.562-0.297-13.093-0.859-19.562-1.672c0.891-5.718-2.953-11.14-8.687-12.155 c-5.734-1-11.203,2.781-12.312,8.469c-6.391-1.406-12.718-3.109-18.968-5.062c1.891-5.5-0.953-11.515-6.421-13.499 c-5.484-2-11.531,0.781-13.609,6.188c-0.375-0.156-0.75-0.297-1.125-0.453c-5.672-2.391-11.234-5.016-16.671-7.844 c2.812-5.078,1.062-11.484-3.984-14.391c-5.047-2.922-11.484-1.25-14.468,3.734c-5.516-3.531-10.859-7.297-16.062-11.297 c3.625-4.5,3-11.093-1.453-14.843c-4.453-3.734-11.046-3.203-14.859,1.125c-2.406-2.219-4.765-4.469-7.093-6.78 c-2.312-2.328-4.578-4.688-6.781-7.094c4.328-3.812,4.859-10.406,1.125-14.859c-3.734-4.453-10.343-5.078-14.843-1.453 c-3.984-5.203-7.765-10.562-11.296-16.062c4.969-3,6.656-9.422,3.734-14.468c-2.906-5.047-9.312-6.812-14.39-4 c-2.812-5.438-5.437-10.984-7.843-16.656c-0.156-0.375-0.297-0.75-0.453-1.125c5.406-2.094,8.187-8.125,6.187-13.593 c-1.984-5.5-8-8.344-13.5-6.438c-1.953-6.249-3.64-12.593-5.062-18.968c5.687-1.109,9.468-6.578,8.468-12.312 c-1.016-5.75-6.421-9.578-12.156-8.688c-0.828-6.468-1.375-12.999-1.672-19.561c5.781-0.125,10.421-4.844,10.421-10.656 s-4.64-10.531-10.421-10.656c0.297-6.562,0.844-13.093,1.672-19.562c5.734,0.891,11.14-2.938,12.156-8.687 c1-5.719-2.781-11.203-8.468-12.312c1.422-6.375,3.109-12.718,5.062-18.968c5.5,1.906,11.516-0.938,13.5-6.421 c2-5.484-0.781-11.515-6.187-13.609c0.156-0.375,0.297-0.75,0.453-1.125c2.406-5.672,5.031-11.218,7.843-16.656 c5.078,2.812,11.484,1.047,14.406-4c2.906-5.047,1.219-11.468-3.75-14.468c3.531-5.5,7.312-10.859,11.296-16.062 c4.5,3.625,11.109,3,14.843-1.453c3.734-4.453,3.203-11.046-1.125-14.859c2.203-2.406,4.469-4.781,6.781-7.093 c2.328-2.312,4.688-4.562,7.093-6.781c3.812,4.328,10.406,4.859,14.859,1.125c4.453-3.734,5.078-10.343,1.453-14.843 c5.203-4,10.546-7.765,16.062-11.296c2.984,4.984,9.421,6.656,14.468,3.734c5.046-2.906,6.796-9.312,3.984-14.39 c5.438-2.828,11-5.453,16.671-7.843c0.375-0.156,0.766-0.297,1.141-0.453c2.078,5.406,8.109,8.187,13.593,6.187 c5.468-1.984,8.328-8,6.421-13.5c6.25-1.953,12.578-3.656,18.968-5.062c1.109,5.687,6.578,9.468,12.328,8.468 c5.718-1.016,9.562-6.421,8.671-12.156c6.469-0.812,13-1.375,19.562-1.672c0.141,5.766,4.843,10.421,10.656,10.421 s10.516-4.656,10.656-10.421c6.562,0.297,13.093,0.859,19.561,1.672c-0.891,5.734,2.938,11.156,8.672,12.156 c5.75,1.016,11.219-2.781,12.312-8.468c6.391,1.406,12.719,3.094,18.983,5.062c-1.906,5.5,0.938,11.516,6.422,13.5 c5.468,2,11.515-0.781,13.593-6.187c0.375,0.156,0.75,0.297,1.125,0.453c5.688,2.391,11.234,5.015,16.672,7.843 c-2.812,5.078-1.047,11.484,4,14.39c5.046,2.938,11.483,1.25,14.468-3.734c5.499,3.531,10.858,7.297,16.062,11.296 c-3.625,4.5-3,11.109,1.453,14.843c4.438,3.734,11.047,3.219,14.859-1.125c2.391,2.203,4.766,4.469,7.094,6.781 c2.312,2.312,4.577,4.688,6.78,7.093c-4.328,3.812-4.859,10.406-1.125,14.859s10.327,5.078,14.843,1.453 c3.984,5.203,7.766,10.562,11.297,16.062c-4.984,3-6.656,9.421-3.75,14.468c2.906,5.046,9.328,6.812,14.406,4 c2.812,5.438,5.438,10.984,7.844,16.656c0.156,0.375,0.297,0.75,0.453,1.125c-5.422,2.094-8.188,8.125-6.203,13.609 c2,5.484,8.015,8.328,13.515,6.421c1.953,6.25,3.641,12.593,5.062,18.968c-5.703,1.109-9.484,6.578-8.469,12.312 c1.016,5.75,6.422,9.593,12.14,8.687c0.844,6.469,1.391,13,1.688,19.562c-5.78,0.125-10.421,4.843-10.421,10.656 s4.641,10.531,10.421,10.656c-0.297,6.562-0.844,13.093-1.688,19.561c-5.718-0.906-11.124,2.938-12.14,8.688 c-1.016,5.734,2.766,11.203,8.469,12.312c-1.422,6.375-3.109,12.719-5.062,18.968c-5.5-1.906-11.515,0.938-13.515,6.422 c-1.984,5.483,0.781,11.515,6.203,13.608c-0.156,0.375-0.297,0.75-0.453,1.125C469.82,353.012,467.195,358.559,464.383,363.996z"></path> <path d="M298.67,213.345c-35.342,0-63.998,28.64-63.998,63.998c0,35.343,28.656,63.997,63.998,63.997 c35.343,0,63.998-28.654,63.998-63.997C362.668,241.985,334.013,213.345,298.67,213.345z M298.67,319.998 c-23.53,0-42.67-19.141-42.67-42.655c0-23.53,19.14-42.686,42.67-42.686c23.516,0,42.654,19.156,42.654,42.686 C341.324,300.857,322.186,319.998,298.67,319.998z"></path> <path d="M298.514,245.344c-0.062,0-0.141,0-0.219,0c-17.483,0.188-31.623,14.421-31.623,31.967v0.031 c0,5.875,4.766,10.655,10.655,10.655c5.891,0,10.671-4.78,10.671-10.655l0,0l0,0c0-5.843,4.703-10.593,10.516-10.671v-0.016 c5.891,0,10.672-4.766,10.672-10.656S304.404,245.344,298.514,245.344z"></path> <path d="M349.324,88.194c-1.547-5.312-6.938-9.734-12.469-10.015l-9.562-0.484c-22.03-8.828-46.092-13.687-71.294-13.687 c-49.623,0-94.84,18.843-128.901,49.732c-0.203,0.078-0.406,0.172-0.609,0.266l-20.483,9.625c-5.312,2.5-8.734,9.25-7.594,15 l0.797,4.094l-14.046,1.719c-5.828,0.719-8.859,5.781-6.75,11.265l5.671,14.765C71.241,196.221,64.007,225.251,64.007,256 c0,46.717,16.703,89.543,44.436,122.839l-1.281,10.405c-0.656,5.375,2.859,9.344,8,9.344c0.422,0,0.859-0.016,1.281-0.062 l9.625-1.188c34.186,31.437,79.81,50.654,129.933,50.654c106.027,0,191.992-85.965,191.992-191.992 C447.992,183.846,408.182,121.005,349.324,88.194z M392.229,342.652c-2.297,2.469-8.312,7.641-22.92,14.609 c-15.828,7.547-33.969,13.547-46.405,17.233c-4.343,1.281-8.108,1.906-11.483,1.906c-3.953,0-7.156-0.859-11.203-1.969 c-4.609-1.25-10.359-2.812-17.155-2.812c-10.797,0-20.89,3.718-32.077,11.937c-0.156-0.328-0.328-0.688-0.516-1.031 c-2.344-4.828-4.75-10.843-7.296-17.187c-8.172-20.406-17.437-43.498-35.374-56.061c-1.75-1.219-4.281-3.484-5.891-8.844 c-1.328-4.422-1.797-10.219-1.328-16.749c0.797-11,3.906-20.937,4.906-23.905c2.031-4.016,9.875-19.109,20.421-34.374 c20.624-29.889,32.093-32.686,33.327-32.905c0.578-0.109,1.875-0.281,4.188-0.281c15.468,0,44.514,7.156,72.293,17.812 c35.094,13.468,49.28,24.78,52.201,28.405c2.125,8.75,1.156,25.546,0.281,40.436C386.885,301.576,385.526,324.997,392.229,342.652 z M183.581,258.469c-0.468-2.734-1.125-5.312-1.921-7.375l-8.125-21.124c-2.109-5.469-3.25-14.718-2.531-20.531l1.859-15.218 l13.031,0.656c0.438,0.016,0.875,0.031,1.328,0.031c5.844,0,14.062-1.719,18.984-4.031l20.499-9.64 c3.859-1.812,9.734-3.25,14.906-3.797c-28.937,18.968-55.811,73.997-55.811,73.997S184.799,254.094,183.581,258.469z M303.014,100.334c1.875-0.891,6.922-2,9.906-2c0.141,0,0.219,0,0.25,0.016l16.624,0.828l1.891,9.578l-8.609-0.469 c-7.608-0.406-18.546,1.719-25.437,4.953l-20.483,9.64c-3.734,1.75-11.124,3.188-15.233,3l-22.625-1.156 c-7.578-0.375-18.499,1.766-25.374,5l-20.499,9.625c-3.719,1.75-11.109,3.219-15.218,3l-17.484-0.875 c-2.672-2.984-6.703-4.938-10.64-4.938c-0.469,0-0.938,0.031-1.406,0.094l-27.327,3.375l14.218-6.688 c1.875-0.89,6.922-2.015,9.906-2.015c0.141,0,0.219,0.016,0.25,0.016l22.625,1.141c0.766,0.047,1.578,0.047,2.39,0.047 c9.078,0,20.359-2.422,28.062-6.047l20.5-9.64c1.875-0.875,6.906-2,9.906-2c0.125,0,0.219,0,0.234,0l22.624,1.156 c0.781,0.031,1.578,0.062,2.406,0.062c9.062,0,20.343-2.438,28.046-6.062L303.014,100.334z M118.927,175.456 c1.484,3.844,2.406,11.328,1.906,15.406l-2.765,22.483c-0.922,7.531,0.438,18.578,3.156,25.671l8.141,21.14 c1.484,3.828,2.406,11.312,1.891,15.405l-2.766,22.468c-0.922,7.547,0.438,18.594,3.172,25.687l8.14,21.124 c1.469,3.812,2.375,11.281,1.844,15.344l-1.766,13.968l-9.5,1.156l0.719-5.937c1.156-9.344-0.406-22.031-3.781-30.812 l-8.14-21.123c-0.844-2.188-1.547-7.969-1.266-10.281l2.765-22.469c1.156-9.358-0.406-22.029-3.796-30.811l-8.141-21.14 c-0.844-2.188-1.546-7.953-1.266-10.266l2.766-22.483c1.156-9.359-0.406-22.015-3.781-30.811l-2.156-5.578l9.609-1.188 L118.927,175.456z M159.707,337.184l-8.14-21.154c-1.484-3.828-2.406-11.312-1.891-15.391l2.766-22.483 c0.922-7.53-0.438-18.577-3.172-25.671l-8.14-21.14c-1.469-3.828-2.391-11.312-1.891-15.406l2.766-22.468 c0.922-7.547-0.422-18.593-3.156-25.687l-3.109-8.062l9.609-1.188l5.984,15.531c0.828,2.188,1.547,7.953,1.266,10.281 l-2.766,22.468c-1.156,9.359,0.406,22.03,3.781,30.811l8.14,21.14c0.844,2.188,1.547,7.953,1.266,10.266l-2.766,22.482 c-1.141,9.359,0.406,22.016,3.797,30.812l8.14,21.139c0.828,2.188,1.547,7.938,1.266,10.266l-2.047,16.516l-9.687,1.203 l1.094-8.547C163.769,355.34,162.441,344.277,159.707,337.184z M270.953,157.082c-0.141,0-0.219,0-0.25,0l-22.625-1.141 c-0.766-0.047-1.578-0.062-2.39-0.062c-9.078,0-20.359,2.437-28.062,6.062l-20.5,9.625c-1.875,0.875-6.921,2-9.906,2 c-0.141,0-0.219,0-0.234,0l-14.015-0.719c-0.453-2.375-1.031-4.625-1.734-6.437l-1.203-3.094l7.093,0.344 c7.578,0.391,18.5-1.75,25.374-5l20.499-9.625c3.719-1.75,11.125-3.203,15.218-3l22.625,1.141c7.594,0.391,18.499-1.766,25.389-5 l20.484-9.64c3.719-1.734,11.094-3.156,15.188-2.938l14.029,0.766l1.859,9.39l-5.983-0.312c-0.781-0.031-1.594-0.047-2.406-0.047 c-9.077,0-20.343,2.422-28.046,6.046l-20.499,9.641C278.983,155.973,273.937,157.082,270.953,157.082z M256,85.35 c8.422,0,16.733,0.594,24.937,1.797l-7.484,3.516c-4.937,2.312-13.155,4.031-18.983,4.031c-0.469,0-0.906,0-1.328-0.031 l-22.624-1.141c-0.422-0.016-0.859-0.047-1.312-0.047c-5.844,0-14.062,1.718-18.984,4.031l-20.499,9.656 c-4.922,2.312-13.14,4.031-18.984,4.031c-0.453,0-0.89-0.031-1.328-0.047l-3.438-0.172c7.515-4.656,15.39-8.75,23.608-12.234 C210.611,89.85,232.954,85.35,256,85.35z M86.897,232.876c0.469,2.781,1.141,5.437,1.938,7.531l8.14,21.125 c2.109,5.469,3.25,14.718,2.531,20.53l-2.766,22.483c-0.531,4.328-0.047,10.547,1.109,15.688 C89.553,299.842,85.334,278.249,85.334,256C85.334,248.203,85.866,240.485,86.897,232.876z M256,426.649 c-23.046,0-45.389-4.499-66.419-13.39c-12.25-5.172-23.733-11.719-34.358-19.516l24.749-3.047 c5.812-0.719,11.171-6.077,11.89-11.89l2.766-22.468c0.703-5.828-0.422-15.062-2.531-20.547l-8.141-21.139 c-0.562-1.469-1.062-3.219-1.468-5.094c2.515,6.688,6.64,12.688,13.078,17.202c26.155,18.296,31.952,82.263,52.919,82.263 c3.188,0,6.734-1.484,10.766-4.844c10.438-8.703,17.515-11.219,23.812-11.219c8.687,0,15.89,4.781,28.358,4.781 c4.906,0,10.625-0.75,17.562-2.812c14.155-4.188,31.202-10.015,46.342-16.937c-15.374,15.046-33.155,26.905-52.904,35.265 C301.389,422.15,279.046,426.649,256,426.649z M426.665,256c0,23.046-4.515,45.404-13.405,66.419 c-0.922,2.188-1.906,4.344-2.906,6.484c-5.984-26.968,4.672-74.2-2.281-97.59c-5.875-19.781-71.826-47.608-117.777-57.092 l20.125-9.468c4.938-2.312,13.155-4.031,18.983-4.031c0.453,0,0.906,0.016,1.328,0.031l22.608,1.156c0.188,0,0.375,0,0.547,0 c5.562,0,9.156-4.359,8.047-9.937l-6.875-34.952c7.656,5.468,14.875,11.562,21.608,18.296 c15.687,15.687,27.999,33.937,36.593,54.264C422.15,210.595,426.665,232.954,426.665,256z"></path> </g> </g> </svg>