<svg xmlns="http://www.w3.org/2000/svg" xmlns:xlink="http://www.w3.org/1999/xlink" version="1.0" id="Layer_1" x="0px" y="0px" width="32px" height="32px" viewBox="0 0 32 32" enable-background="new 0 0 32 32" xml:space="preserve"> <g> <path fill="#EF4D4D" d="M24,17.999H8c-0.553,0-1,0.447-1,1v1c0,0.553,0.447,1,1,1h1l1,9.999c0.078,0.609,0.447,1,1,1h10 c0.553,0,0.922-0.359,1-1l1-9.999h1c0.553,0,1-0.447,1-1v-1C25,18.446,24.553,17.999,24,17.999z"></path> <polygon opacity="0.15" points="22.909,21.999 23,20.999 9,20.999 9.091,21.999 "></polygon> <path fill="#3AAD73" d="M23,5.998c-0.026,0-0.052,0.008-0.078,0.008C22.439,2.61,19.529-0.002,16-0.002S9.561,2.61,9.078,6.006 C9.052,6.006,9.026,5.998,9,5.998c-2.762,0-5,2.238-5,5s2.238,5,5,5h14c2.762,0,5-2.238,5-5S25.762,5.998,23,5.998z"></path> <path fill="#4F3923" d="M19.535,9.289c-0.391-0.391-1.023-0.391-1.414,0L16,11.411l-2.121-2.12 c-0.392-0.392-1.024-0.392-1.415-0.002c-0.39,0.391-0.39,1.024,0.002,1.415L15,13.239v4.759h2v-4.759l2.535-2.536 C19.926,10.312,19.926,9.68,19.535,9.289z"></path> </g> <g> </g> <g> </g> <g> </g> <g> </g> <g> </g> <g> </g> </svg>